<svg height="512" viewBox="0 0 512 512" width="512" xmlns="http://www.w3.org/2000/svg"><g id="flat"><path d="m340 264h-168a84 84 0 0 0 -84 84v140h136v-96h64v96h136v-140a84 84 0 0 0 -84-84zm-60 88a33.941 33.941 0 1 1 0-48 33.95 33.95 0 0 1 0 48z" fill="#4799cf"/><circle cx="256" cy="128" fill="#4799cf" r="104"/><g fill="#3775a4"><circle cx="216" cy="112" r="16"/><circle cx="296" cy="112" r="16"/><path d="m256 181.255a52.908 52.908 0 0 1 -37.657-15.6 8 8 0 0 1 11.314-11.314 37.254 37.254 0 0 0 52.686 0 8 8 0 0 1 11.314 11.314 52.908 52.908 0 0 1 -37.657 15.6z"/><path d="m160 392v96h-16v-96a8 8 0 0 1 16 0z"/><path d="m368 392v96h-16v-96a8 8 0 0 1 16 0z"/></g></g></svg>